/* XPM */
static char * bitcoin32_xpm[] = {
"32 32 413 2",
"  	c None",
". 	c #ACB232",
"+ 	c #B1BE3A",
"@ 	c #B6B543",
"# 	c #B3B83E",
"$ 	c #B2C637",
"% 	c #B0D234",
"& 	c #A7A62E",
"* 	c #A7BC27",
"= 	c #A6CD23",
"- 	c #A7E01E",
"; 	c #A8E71C",
"> 	c #AAE621",
", 	c #AAE71F",
"' 	c #A9E71C",
") 	c #A7E71A",
"! 	c #A6DF20",
"~ 	c #ABD427",
"{ 	c #ACC82E",
"] 	c #A9BC2A",
"^ 	c #A7CF25",
"/ 	c #A9E31E",
"( 	c #A8EA19",
"_ 	c #A9EB18",
": 	c #A9EC19",
"< 	c #A9EC18",
"[ 	c #A9EA18",
"} 	c #A8E81A",
"| 	c #A8E023",
"1 	c #AAC92B",
"2 	c #A5A22C",
"3 	c #A1C426",
"4 	c #A8EC18",
"5 	c #A8E91A",
"6 	c #A9D128",
"7 	c #AAB52C",
"8 	c #A8B32B",
"9 	c #A8D521",
"0 	c #A8D91F",
"a 	c #A7AD29",
"b 	c #A3A525",
"c 	c #A8D61E",
"d 	c #AAEE18",
"e 	c #AAE123",
"f 	c #AAB32F",
"g 	c #9E8E21",
"h 	c #A3C51F",
"i 	c #AAEC1A",
"j 	c #A8EB18",
"k 	c #A9DE20",
"l 	c #A7AC2C",
"m 	c #9AB621",
"n 	c #A8E51A",
"o 	c #97D515",
"p 	c #8AC214",
"q 	c #8BC114",
"r 	c #8EC614",
"s 	c #9EDD17",
"t 	c #A8EB19",
"u 	c #92CB15",
"v 	c #91CB14",
"w 	c #A4E517",
"x 	c #A6E718",
"y 	c #85BA12",
"z 	c #709C0F",
"A 	c #648B0E",
"B 	c #638A0E",
"C 	c #67910E",
"D 	c #8CC412",
"E 	c #A6C826",
"F 	c #A7BF2A",
"G 	c #ACE71E",
"H 	c #92CD14",
"I 	c #456109",
"J 	c #141C02",
"K 	c #111702",
"L 	c #182102",
"M 	c #4E6D0A",
"N 	c #97D315",
"O 	c #AFF519",
"P 	c #7AAB11",
"Q 	c #263604",
"R 	c #1B2803",
"S 	c #6B960F",
"T 	c #A3E418",
"U 	c #AAED19",
"V 	c #ABEF19",
"W 	c #67900D",
"X 	c #1A2502",
"Y 	c #0B1000",
"Z 	c #070A00",
"` 	c #080B00",
" .	c #415B08",
"..	c #A2DF1A",
"+.	c #A2A828",
"@.	c #A0C823",
"#.	c #ABF118",
"$.	c #75A510",
"%.	c #1F2B03",
"&.	c #020300",
"*.	c #121901",
"=.	c #233203",
"-.	c #101701",
";.	c #243203",
">.	c #84B813",
",.	c #A1E117",
"'.	c #466309",
").	c #0C1001",
"!.	c #010200",
"~.	c #344906",
"{.	c #A9ED19",
"].	c #AAEE19",
"^.	c #A0DF17",
"/.	c #344806",
"(.	c #080C00",
"_.	c #060900",
":.	c #263505",
"<.	c #9AD816",
"[.	c #A4C622",
"}.	c #A0A62C",
"|.	c #A8D923",
"1.	c #AEF518",
"2.	c #82B512",
"3.	c #273704",
"4.	c #000000",
"5.	c #364B06",
"6.	c #84B912",
"7.	c #6B960E",
"8.	c #638B0D",
"9.	c #9DDB16",
"0.	c #94CF15",
"a.	c #374D06",
"b.	c #0A0E00",
"c.	c #030500",
"d.	c #283804",
"e.	c #87BE13",
"f.	c #ACEF19",
"g.	c #8FC715",
"h.	c #212E04",
"i.	c #141B01",
"j.	c #496709",
"k.	c #172002",
"l.	c #8FC714",
"m.	c #A9E61E",
"n.	c #9D9327",
"o.	c #A2B228",
"p.	c #AAE61E",
"q.	c #ADF218",
"r.	c #8BC314",
"s.	c #304406",
"t.	c #3A5207",
"u.	c #ADF21A",
"v.	c #182202",
"w.	c #55760B",
"x.	c #A1E017",
"y.	c #ACF01A",
"z.	c #84B713",
"A.	c #192303",
"B.	c #050700",
"C.	c #304306",
"D.	c #93CE15",
"E.	c #2D4005",
"F.	c #151E02",
"G.	c #A8E919",
"H.	c #9DA224",
"I.	c #9BB824",
"J.	c #ADF219",
"K.	c #8AC113",
"L.	c #2E4105",
"M.	c #374D07",
"N.	c #8CC514",
"O.	c #AEF319",
"P.	c #172102",
"Q.	c #5E830D",
"R.	c #A1E217",
"S.	c #ACF019",
"T.	c #88BD13",
"U.	c #1B2503",
"V.	c #040600",
"W.	c #344907",
"X.	c #55770B",
"Y.	c #0C1201",
"Z.	c #7EB011",
"`.	c #A9EB19",
" +	c #9BB51F",
".+	c #A2C424",
"++	c #AAEF19",
"@+	c #ABF019",
"#+	c #293A04",
"$+	c #54750B",
"%+	c #7DAF11",
"&+	c #A0E017",
"*+	c #AEF419",
"=+	c #729F0F",
"-+	c #577A0B",
";+	c #94D015",
">+	c #233204",
",+	c #354B07",
"'+	c #85BA13",
")+	c #4C6B09",
"!+	c #62890D",
"~+	c #A4D323",
"{+	c #947934",
"]+	c #999624",
"^+	c #A6CF21",
"/+	c #ADF319",
"(+	c #99D616",
"_+	c #0F1501",
":+	c #0C1100",
"<+	c #060800",
"[+	c #253403",
"}+	c #81B412",
"|+	c #7FB112",
"1+	c #202C03",
"2+	c #000100",
"3+	c #4F6F0A",
"4+	c #9EDD16",
"5+	c #9DDB17",
"6+	c #2B3C05",
"7+	c #9FDF17",
"8+	c #A9E022",
"9+	c #A4933A",
"0+	c #9EBB17",
"a+	c #A7DF19",
"b+	c #ACF219",
"c+	c #4B690A",
"d+	c #0D1201",
"e+	c #121A01",
"f+	c #151E01",
"g+	c #425D08",
"h+	c #8EC814",
"i+	c #AEF219",
"j+	c #212F03",
"k+	c #52730B",
"l+	c #ABEE19",
"m+	c #2F4205",
"n+	c #2E4206",
"o+	c #9CDA16",
"p+	c #A5E618",
"q+	c #A7E919",
"r+	c #A7DB1F",
"s+	c #A18A34",
"t+	c #9FB621",
"u+	c #A6DC1D",
"v+	c #A9ED18",
"w+	c #AEF21A",
"x+	c #87BD13",
"y+	c #2B3D05",
"z+	c #020400",
"A+	c #4A6709",
"B+	c #7FB212",
"C+	c #84B812",
"D+	c #212E03",
"E+	c #020200",
"F+	c #54760C",
"G+	c #A3E317",
"H+	c #9FDE17",
"I+	c #2D3F05",
"J+	c #69920E",
"K+	c #7EB111",
"L+	c #A6DB24",
"M+	c #93843A",
"N+	c #A7D128",
"O+	c #AAEF18",
"P+	c #8BC213",
"Q+	c #8EC714",
"R+	c #85B913",
"S+	c #73A010",
"T+	c #5A7F0C",
"U+	c #8BC214",
"V+	c #9CDB16",
"W+	c #070900",
"X+	c #263504",
"Y+	c #95D115",
"Z+	c #4E6D09",
"`+	c #060A00",
" @	c #202D03",
".@	c #A4DD21",
"+@	c #8A8833",
"@@	c #A2C629",
"#@	c #ACF119",
"$@	c #8DC514",
"%@	c #324506",
"&@	c #3B5207",
"*@	c #93CE14",
"=@	c #7BAC11",
"-@	c #1E2B03",
";@	c #456008",
">@	c #2F4305",
",@	c #476409",
"'@	c #9AD916",
")@	c #3D5708",
"!@	c #090D00",
"~@	c #74A20F",
"{@	c #304405",
"]@	c #0E1301",
"^@	c #7FB211",
"/@	c #A5DE21",
"(@	c #96B427",
"_@	c #AAED1A",
":@	c #ABF018",
"<@	c #90C914",
"[@	c #384F07",
"}@	c #8FC814",
"|@	c #466109",
"1@	c #101601",
"2@	c #233104",
"3@	c #030400",
"4@	c #3E5608",
"5@	c #A0E117",
"6@	c #60870C",
"7@	c #0D1301",
"8@	c #253404",
"9@	c #98D516",
"0@	c #A0CA2B",
"a@	c #9CBA27",
"b@	c #A9E71D",
"c@	c #A5E717",
"d@	c #82B612",
"e@	c #3B5307",
"f@	c #77A710",
"g@	c #1A2402",
"h@	c #587A0B",
"i@	c #A3E518",
"j@	c #8AC213",
"k@	c #070B00",
"l@	c #192202",
"m@	c #6D990F",
"n@	c #97AF29",
"o@	c #9AB129",
"p@	c #A8DF20",
"q@	c #86BD12",
"r@	c #415A08",
"s@	c #425C08",
"t@	c #96D215",
"u@	c #ADF119",
"v@	c #8DC614",
"w@	c #466209",
"x@	c #223003",
"y@	c #243204",
"z@	c #89BF13",
"A@	c #719F0F",
"B@	c #314506",
"C@	c #243304",
"D@	c #374E07",
"E@	c #6E990F",
"F@	c #A8EC19",
"G@	c #A5DD21",
"H@	c #8B8C2A",
"I@	c #95BC26",
"J@	c #6C9611",
"K@	c #111801",
"L@	c #040700",
"M@	c #4F6F0B",
"N@	c #88BF13",
"O@	c #88BF14",
"P@	c #89C014",
"Q@	c #96D115",
"R@	c #AAEC19",
"S@	c #8AC114",
"T@	c #A9EA1A",
"U@	c #95B729",
"V@	c #9DB829",
"W@	c #779819",
"X@	c #283805",
"Y@	c #0F1601",
"Z@	c #A0CF22",
"`@	c #888929",
" #	c #768228",
".#	c #627B15",
"+#	c #3C5508",
"@#	c #A4DD20",
"##	c #828F2A",
"$#	c #818A23",
"%#	c #93C01A",
"&#	c #A9EE19",
"*#	c #A7E51F",
"=#	c #8EA62E",
"-#	c #879421",
";#	c #A2D51E",
">#	c #A9EC1A",
",#	c #A4DC1E",
"'#	c #92AE2D",
")#	c #859526",
"!#	c #A0D11F",
"~#	c #A7E51B",
"{#	c #A2D720",
"]#	c #899E2A",
"^#	c #8B9724",
"/#	c #94B623",
"(#	c #A9EB1A",
"_#	c #AAED18",
":#	c #AAEE17",
"<#	c #A8E51C",
"[#	c #9ECF23",
"}#	c #91A728",
"|#	c #83982B",
"1#	c #9AC624",
"2#	c #A8E61C",
"3#	c #AAEB1D",
"4#	c #A7E41F",
"5#	c #A5DD20",
"6#	c #8AAA2B",
"7#	c #96B428",
"8#	c #88A62B",
"9#	c #91B827",
"0#	c #97C126",
"a#	c #9CC727",
"b#	c #9DCA26",
"c#	c #98C127",
"d#	c #91B32C",
"e#	c #859F30",
"f#	c #97B42F",
"                          . + @ # $ %                           ",
"                    & * = - ; > , ' ) ! ~ {                     ",
"                ] ^ / ( _ : : : : : : < [ } | 1                 ",
"            2 3 ' < : : : : : : : : : : : : 4 5 6 7             ",
"          8 9 : < : : : : : : : : : : : : : : : 4 0 a           ",
"        b c d < : : : : : : : : : : : : : : : : : 4 e f         ",
"      g h i : : : : : : : : : : : : : : : : < < : : j k l       ",
"      m n o p q q r s t : j u v w : : : : x y z A B C D E       ",
"    F G H I J K K L M N O P Q R S T U : V W X Y Z ` Z  ...+.    ",
"    @.#.$.%.&.*.=.-.;.>.,.'.).!.~.H {.].^./.(.Z Y ` _.:.<.[.    ",
"  }.|.1.2.3.4.5.6.7.8.9.0.a.b.c.d.e.t f.g.h.Z i.j.L Z k.l.m.n.  ",
"  o.p.q.r.s.4.t.0.4 j {.u.z v.c.w.x.].y.z.A.B.C.D.E.Z F.e.G.H.  ",
"  I.].J.K.L.4.M.N.U : : O.z P.&.Q.R.U S.T.U.V.W.^.X.Y.*.Z.`. +  ",
"  .+++@+2.#+&.Q $+%+&+U *+=+L &.-+&+U V ;+>+B.,+R.'+)+!+,.< ~+{+",
"]+^+/+(+M _+B.:+<+[+}+{.O.|+1+2+3+4+U ].5+6+<+,+7+U d ].U 4 8+9+",
"0+a+b+(+c+d+B.e+f+g+h+{.i+6.j+&.k+7+l+].7+m+_.n+o+t p+q+{.< r+s+",
"t+u+v+w+x+y+z+#+A+B+q+U J.C+D+E+F+o+G+`.H+m+_.I+o+H J+K+p+< L+M+",
"  N+O+J.P+m+4.t.Q+l+U : O.R+j+&.X.S+T+U+V+m+W+X+Y+Z+`+ @x+< .@+@",
"  @@++#@$@%@4.&@*@#@: : v+=@-@V.;@>@c.,@'@)@!@i.~@{@Z ]@^@< /@  ",
"  (@_@:@<@5.4.[@v S.: @+}@|@1@W+2@i.3@4@5@6@7@<+8@1@B.m+9@< 0@  ",
"  a@b@c@d@C.4.e@H S.: O.f@g@3@B.<+V._.h@i@j@3.k@3@k@l@m@< 5 n@  ",
"  o@p@q@r@F.!.s@t@V : u@v@w@2@x@8@y@&@z@( S.A@B@C@D@E@w F@G@H@  ",
"    I@J@K@&.L@M@4+V : `.V V+N@'+O@P@Q@: {.{.R@0.S@(+#@{.T@U@    ",
"    V@W@X@B.Y@!+w ].: : : V J.u.u.u.y.: : : {.y.u.V : v+Z@`@    ",
"       #.#+#k+v@: : : : : : : : : : : : : : : : : : v+@###      ",
"        $#%#T V {.: : : : : : : : : : : : : : : < &#*#=#        ",
"          -#;#>#{.: : : : : : : : : : : : : : < U ,#'#          ",
"            )#!#~#: : : : : : : : : : : : < v+U {#]#            ",
"              ^#/#,#(#_#v+< : : : < < v+:#: <#[#}#              ",
"                  |#1#,#2#(#{.].O+].3#4#5#1#6#                  ",
"                      7#8#9#0#a#b#c#d#e#f#                      ",
"                                                                "};
