/* XPM */
static char * bitcoin16_xpm[] = {
"16 16 125 2",
"  	c None",
". 	c #A5A823",
"+ 	c #A8C224",
"@ 	c #9AB82E",
"# 	c #98B92C",
"$ 	c #ABD126",
"% 	c #A5BF24",
"& 	c #A1C922",
"* 	c #A9E71B",
"= 	c #A9EB19",
"- 	c #A9EC19",
"; 	c #A8EC18",
"> 	c #A8E61B",
", 	c #9ABE26",
"' 	c #A6C820",
") 	c #A9E51D",
"! 	c #A9EC18",
"~ 	c #A7D51E",
"{ 	c #A3BB1C",
"] 	c #9CD21A",
"^ 	c #90C915",
"/ 	c #91CB15",
"( 	c #A7EA18",
"_ 	c #A8EA18",
": 	c #93CE15",
"< 	c #A4E518",
"[ 	c #86BC13",
"} 	c #80B312",
"| 	c #8DB11B",
"1 	c #9ECB1F",
"2 	c #51720B",
"3 	c #000000",
"4 	c #86BB13",
"5 	c #88BE13",
"6 	c #94D014",
"7 	c #A8EB18",
"8 	c #7CAD11",
"9 	c #8CA125",
"0 	c #A1B225",
"a 	c #A6E51B",
"b 	c #435E09",
"c 	c #82B612",
"d 	c #9BD916",
"e 	c #89C112",
"f 	c #A6E818",
"g 	c #7DAF12",
"h 	c #73A10E",
"i 	c #76A610",
"j 	c #9BC71C",
"k 	c #A1BC22",
"l 	c #445F09",
"m 	c #7FB212",
"n 	c #90CA14",
"o 	c #96D314",
"p 	c #A7E918",
"q 	c #75A310",
"r 	c #76A60F",
"s 	c #82B611",
"t 	c #9ED718",
"u 	c #999C25",
"v 	c #94BA21",
"w 	c #93CD15",
"x 	c #9EDD16",
"y 	c #94CF15",
"z 	c #98D715",
"A 	c #79A911",
"B 	c #A4E718",
"C 	c #A3E417",
"D 	c #A8E919",
"E 	c #7E8533",
"F 	c #95B827",
"G 	c #466109",
"H 	c #85BA13",
"I 	c #A8EB19",
"J 	c #98D415",
"K 	c #8FC812",
"L 	c #9EDC15",
"M 	c #6E9B0F",
"N 	c #85BA12",
"O 	c #7BAC10",
"P 	c #A1E019",
"Q 	c #788532",
"R 	c #9FC126",
"S 	c #4C6A0A",
"T 	c #A1E117",
"U 	c #8EC614",
"V 	c #77A710",
"W 	c #83B711",
"X 	c #9EDA1B",
"Y 	c #93CC17",
"Z 	c #A2E317",
"` 	c #A4E618",
" .	c #82B511",
"..	c #648C0E",
"+.	c #719E10",
"@.	c #99D515",
"#.	c #A4E617",
"$.	c #87BD13",
"%.	c #92CC15",
"&.	c #9ECF21",
"*.	c #6B841C",
"=.	c #6B960E",
"-.	c #A6E918",
";.	c #A1E217",
">.	c #9FDE17",
",.	c #9EDD17",
"'.	c #9FDF16",
").	c #9EDE16",
"!.	c #A8EA19",
"~.	c #7E952C",
"{.	c #6F8815",
"].	c #90C914",
"^.	c #92B427",
"/.	c #9AC41E",
"(.	c #A8EB1A",
"_.	c #8FB326",
":.	c #86A227",
"<.	c #A2DB1E",
"[.	c #A8E91A",
"}.	c #A9EB1A",
"|.	c #A6E41D",
"1.	c #9FD222",
"2.	c #7F9B2B",
"3.	c #768A30",
"4.	c #738630",
"          . + @ # $             ",
"      % & * = - ; = > ,         ",
"    ' ) - - - - - - - ! ~       ",
"  { ] ^ / ( _ : - - < [ } |     ",
"  1 2 3 3 4 5 3 6 7 8 3 3 3 9   ",
"0 a b 3 c d 4 3 e f g 3 h i j   ",
"k ( l 3 m ! n 3 o p q 3 r s t u ",
"v w 3 3 3 x y 3 z _ A 3 B C D E ",
"F ( G 3 H I J 3 K L M 3 N O P Q ",
"R p S 3 T _ U 3 3 V W 3 3 3 X   ",
"  Y 3 3 Z `  ...+.@.#.$.4 %.&.  ",
"  *.l =.-.- ;.>.,._ - '.).!.~.  ",
"    {.].- - - - - - - - = ^.    ",
"      /.!.- - - - - - (._.      ",
"        :.<.[.}.}.|.1.2.        ",
"              3.4.              "};
